<?xml version="1.0" ?>
<svg height="424px" version="1.1" viewBox="0 0 40 424" width="40px"
    xmlns="http://www.w3.org/2000/svg">
    <title />
    <desc />
    <defs />
    <g fill="none" fill-rule="evenodd" id="Page-1" stroke="none" stroke-width="1">
        <g id="star-wars-copy" transform="translate(-1066.000000, -2367.000000)">
            <g id="lightsaber-darth-vader" transform="translate(1066.000000, 2367.000000)">
                <path
                    d="M24.5688,5.04 C24.4928,2.32 22.5648,0.088 20.1408,0.004 C17.6168,-0.084 15.5088,2.168 15.4328,5.04 L12.0008,288 L28.0008,288 L24.5688,5.04 Z"
                    fill="#E74C3C" id="Fill-1" />
                <path d="M40,288 L36,288 L36,284 L40,284 L40,288 Z" fill="#BEBEBE" id="Fill-3" />
                <path d="M40,300 L36,300 L36,296 L40,296 L40,300 Z" fill="#BEBEBE" id="Fill-5" />
                <path d="M32,424 L8,424 L8,420 L32,420 L32,424 Z" fill="#BEBEBE" id="Fill-6" />
                <path d="M32,352 L8,352 L8,344 L32,344 L32,352 Z" fill="#BEBEBE" id="Fill-7" />
                <path d="M32,320 L8,320 L8,304 L32,304 L32,320 Z" fill="#BEBEBE" id="Fill-8" />
                <path d="M36,344 L4,344 L4,320 L36,320 L36,344 Z" fill="#323232" id="Fill-9" />
                <path d="M36,304 L4,304 L4,288 L36,272 L36,304 Z" fill="#323232" id="Fill-10" />
                <path d="M0,340 L4,340 L4,324 L0,324 L0,340 Z" fill="#BEBEBE" id="Fill-11" />
                <path d="M32,420 L8,420 L8,352 L32,352 L32,420 Z" fill="#BEBEBE" id="Fill-12" />
                <path d="M12,420 L4,420 L4,352 L12,352 L12,420 Z" fill="#323232" id="Fill-13" />
                <path d="M36,420 L28,420 L28,352 L36,352 L36,420 Z" fill="#323232" id="Fill-14" />
                <path d="M24,420 L16,420 L16,352 L24,352 L24,420 Z" fill="#323232" id="Fill-15" />
            </g>
        </g>
    </g>
</svg>