<?xml version="1.0" ?><svg height="424px" version="1.1" viewBox="0 0 32 424" width="32px" xmlns="http://www.w3.org/2000/svg" xmlns:sketch="http://www.bohemiancoding.com/sketch/ns" xmlns:xlink="http://www.w3.org/1999/xlink"><title/><desc/><defs/><g fill="none" fill-rule="evenodd" id="Page-1" stroke="none" stroke-width="1"><g id="star-wars-copy" transform="translate(-1201.000000, -2367.000000)"><g id="lightsaber-luke-rotj" transform="translate(1201.000000, 2367.000000)"><path d="M20.5688,5.04 C20.4928,2.32 18.5648,0.088 16.1408,0.004 C13.6168,-0.084 11.5088,2.168 11.4328,5.04 L8.0008,288 L24.0008,288 L20.5688,5.04 Z" fill="#8CBE3C" id="Fill-16"/><path d="M28,424 L4,424 L4,420 L28,420 L28,424 Z" fill="#BEBEBE" id="Fill-17"/><path d="M28,400 L4,400 L4,384 L28,384 L28,400 Z" fill="#8C8C8C" id="Fill-18"/><path d="M30,348 L2,348 L2,344 L30,344 L30,348 Z" fill="#8C8C8C" id="Fill-19"/><path d="M28,344 L4,344 L4,340 L28,340 L28,344 Z" fill="#323232" id="Fill-20"/><path d="M30,340 L2,340 L2,336 L30,336 L30,340 Z" fill="#8C8C8C" id="Fill-21"/><path d="M28,336 L4,336 L4,332 L28,332 L28,336 Z" fill="#323232" id="Fill-22"/><path d="M30,332 L2,332 L2,328 L30,328 L30,332 Z" fill="#8C8C8C" id="Fill-23"/><path d="M28,328 L4,328 L4,324 L28,324 L28,328 Z" fill="#323232" id="Fill-24"/><path d="M30,324 L2,324 L2,320 L30,320 L30,324 Z" fill="#8C8C8C" id="Fill-25"/><path d="M28,320 L4,320 L4,316 L28,316 L28,320 Z" fill="#323232" id="Fill-26"/><path d="M28,352 L4,352 L4,348 L28,348 L28,352 Z" fill="#323232" id="Fill-27"/><path d="M28,388 L4,388 L4,360 L28,360 L28,388 Z" fill="#BEBEBE" id="Fill-28"/><path d="M24,320 L8,320 L8,300 L24,300 L24,320 Z" fill="#323232" id="Fill-29"/><path d="M32,272 L0,272 L0,276 L32,276 L32,272 Z" fill="#BEBEBE" id="Fill-30"/><path d="M28,276 L4,276 L4,288 L28,288 L28,276 Z" fill="#BEBEBE" id="Fill-31"/><path d="M20,288 L12,288 L12,300 L20,300 L20,288 Z" fill="#A57D52" id="Fill-32"/><path d="M4,308 L28,308 L28,304 L4,304 L4,308 Z" fill="#BEBEBE" id="Fill-33"/><path d="M6,304 L26,304 L26,296 L6,296 L6,304 Z" fill="#A57D52" id="Fill-34"/><path d="M0,384 L4,384 L4,364 L0,364 L0,384 Z" fill="#CBCBCB" id="Fill-35"/><path d="M28,420 L4,420 L4,400 L28,400 L28,420 Z" fill="#BEBEBE" id="Fill-36"/><path d="M8,420 L0,420 L0,404 L8,404 L8,420 Z" fill="#8C8C8C" id="Fill-37"/><path d="M32,420 L24,420 L24,404 L32,404 L32,420 Z" fill="#8C8C8C" id="Fill-38"/><path d="M20,420 L12,420 L12,404 L20,404 L20,420 Z" fill="#8C8C8C" id="Fill-39"/><path d="M30,356 L2,356 L2,352 L30,352 L30,356 Z" fill="#8C8C8C" id="Fill-40"/><path d="M28,360 L4,360 L4,356 L28,356 L28,360 Z" fill="#323232" id="Fill-41"/></g></g></g></svg>