<?xml version="1.0" ?><svg height="424px" version="1.1" viewBox="0 0 40 424" width="40px" xmlns="http://www.w3.org/2000/svg" xmlns:sketch="http://www.bohemiancoding.com/sketch/ns" xmlns:xlink="http://www.w3.org/1999/xlink"><title/><desc/><defs/><g fill="none" fill-rule="evenodd" id="Page-1" stroke="none" stroke-width="1"><g id="star-wars-copy" transform="translate(-931.000000, -2367.000000)"><g id="lightsaber-luke-anh" transform="translate(931.000000, 2367.000000)"><path d="M28.5688,5.04 C28.4928,2.32 26.5648,0.088 24.1408,0.004 C21.6168,-0.084 19.5088,2.168 19.4328,5.04 L16.0008,288 L32.0008,288 L28.5688,5.04 Z" fill="#1EAAE1" id="Fill-42"/><path d="M36,424 L12,424 L12,352 L36,352 L36,424 Z" fill="#BEBEBE" id="Fill-43"/><path d="M36,304 L16,304 L16,280 L36,280 L36,304 Z" fill="#8C8C8C" id="Fill-44"/><path d="M40,352 L8,352 L8,304 L40,304 L40,352 Z" fill="#BEBEBE" id="Fill-45"/><path d="M16,420 L8,420 L8,352 L16,352 L16,420 Z" fill="#8C8C8C" id="Fill-46"/><path d="M40,420 L32,420 L32,352 L40,352 L40,420 Z" fill="#8C8C8C" id="Fill-47"/><path d="M28,420 L20,420 L20,352 L28,352 L28,420 Z" fill="#8C8C8C" id="Fill-48"/><path d="M4,348 L8,348 L8,332 L4,332 L4,348 Z" fill="#CBCBCB" id="Fill-49"/><path d="M4,304 L8,304 L8,296 L4,296 L4,304 Z" fill="#BEBEBE" id="Fill-50"/><path d="M12,292 L4,292 C1.8,292 0,290.2 0,288 C0,285.8 1.8,284 4,284 L12,284 C14.2,284 16,285.8 16,288 C16,290.2 14.2,292 12,292" fill="#BEBEBE" id="Fill-51"/><path d="M8,308 L8,272 L8,272 C12.904,272 17.384,274.772 19.576,279.156 L24,288 L40,296 L40,308 L8,308 Z" fill="#BEBEBE" id="Fill-52"/><path d="M32,300 C32,302.208 30.208,304 28,304 C25.792,304 24,302.208 24,300 C24,297.792 25.792,296 28,296 C30.208,296 32,297.792 32,300" fill="#8C8C8C" id="Fill-53"/></g></g></g></svg>