<?xml version="1.0" ?>
<svg height="186px" version="1.1" viewBox="0 0 145 186" width="145px"
    xmlns="http://www.w3.org/2000/svg">
    <title />
    <desc />
    <defs />
    <g fill="none" fill-rule="evenodd" id="Page-1" stroke="none" stroke-width="1">
        <g id="star-wars-copy" transform="translate(-1758.000000, -874.000000)">
            <g id="lando-calrissian" transform="translate(1758.000000, 874.000000)">
                <path
                    d="M28.1088,138 C15.9588,138 6.1068,127.254 6.1068,114 L6.1068,109.998 L6.1068,54 L138.1068,54 L138.1068,109.998 L138.1068,114 C138.1068,127.254 128.2608,138 116.1108,138 L28.1088,138 Z"
                    fill="#323232" id="Fill-1" />
                <path
                    d="M132.1086,70.1382 C132.1086,41.3442 105.2466,17.9982 72.1086,17.9982 C38.9706,17.9982 12.1086,41.3442 12.1086,70.1382 L12.1086,147.5682 C12.1086,152.9142 14.4846,157.9782 18.5886,161.3982 L43.1046,181.8282 C46.3386,184.5222 50.4126,185.9982 54.6246,185.9982 L89.5926,185.9982 C93.8046,185.9982 97.8786,184.5222 101.1126,181.8282 L125.6286,161.3982 C129.7326,157.9782 132.1086,152.9142 132.1086,147.5682 L132.1086,70.1382 Z"
                    fill="#8C5A3C" id="Fill-3" />
                <path
                    d="M132.1086,120 L132.1086,120 C125.5086,120 120.1086,114.6 120.1086,108 L120.1086,90 C120.1086,83.4 125.5086,78 132.1086,78 L132.1086,78 C138.7086,78 144.1086,83.4 144.1086,90 L144.1086,108 C144.1086,114.6 138.7086,120 132.1086,120"
                    fill="#8C5A3C" id="Fill-5" />
                <path
                    d="M12.1086,120 L12.1086,120 C5.5086,120 0.1086,114.6 0.1086,108 L0.1086,90 C0.1086,83.4 5.5086,78 12.1086,78 L12.1086,78 C18.7086,78 24.1086,83.4 24.1086,90 L24.1086,108 C24.1086,114.6 18.7086,120 12.1086,120"
                    fill="#8C5A3C" id="Fill-7" />
                <path
                    d="M48.1086,96 C44.7906,96 42.1086,98.682 42.1086,102 C42.1086,105.318 44.7906,108 48.1086,108 C51.4266,108 54.1086,105.318 54.1086,102 C54.1086,98.682 51.4266,96 48.1086,96"
                    fill="#323232" id="Fill-9" />
                <path
                    d="M96.1086,96 C92.7906,96 90.1086,98.682 90.1086,102 C90.1086,105.318 92.7906,108 96.1086,108 C99.4266,108 102.1086,105.318 102.1086,102 C102.1086,98.682 99.4266,96 96.1086,96"
                    fill="#323232" id="Fill-11" />
                <path
                    d="M66.1086,123.2538 L66.1086,98.7438 C66.1086,97.2318 67.3386,96.0018 68.8566,96.0018 L69.3606,96.0018 C70.8786,96.0018 72.1086,97.2318 72.1086,98.7438 L72.1086,123.2538 C72.1086,124.7718 70.8786,126.0018 69.3606,126.0018 L68.8566,126.0018 C67.3386,126.0018 66.1086,124.7718 66.1086,123.2538"
                    fill="#774A29" id="Fill-13" />
                <path
                    d="M30.1086,18 L24.1086,18 C8.6586,23.454 -1.1514,44.094 0.1086,60 L12.1086,108 L18.1086,36 C53.0826,45.498 96.3606,10.752 126.1086,36 L132.1086,108 L144.1086,60 C145.3686,44.094 135.5586,23.454 120.1086,18 L114.1086,18 C112.2066,10.74 106.4586,19.722 99.1506,18.006 C81.2406,13.788 62.9766,13.788 45.0666,18.006 C37.7586,19.722 32.0106,10.74 30.1086,18"
                    fill="#323232" id="Fill-15" />
                <path
                    d="M36.1086,150 L66.1086,150 L72.1086,138 L78.1086,150 L108.1086,150 L108.1086,144 L72.1086,132 L36.1086,144 L36.1086,150 Z"
                    fill="#323232" id="Fill-18" />
                <path
                    d="M130.269,20.844 C127.227,17.22 122.421,16.434 117.777,15.672 C114.909,15.204 111.939,14.712 109.713,13.572 C107.985,12.684 106.173,10.686 104.259,8.574 C101.169,5.166 97.671,1.308 92.727,0.234 C88.737,-0.63 84.255,1.05 80.199,2.742 C77.283,3.966 74.523,5.118 72.111,5.118 C69.693,5.118 66.933,3.966 64.017,2.742 C59.967,1.05 55.485,-0.636 51.483,0.24 C46.539,1.308 43.041,5.172 39.945,8.574 C38.031,10.692 36.213,12.69 34.473,13.584 C32.253,14.724 29.289,15.216 26.415,15.684 C21.777,16.452 16.971,17.238 13.935,20.856 C9.693,25.914 10.539,32.406 11.277,38.136 C11.535,40.092 11.793,42.018 11.793,43.788 L11.793,48.72 L72.111,26.448 L132.423,48.72 L132.423,43.788 C132.423,42.018 132.681,40.092 132.933,38.136 C133.677,32.4 134.517,25.902 130.269,20.844"
                    fill="#323232" id="Fill-20" />
                <path
                    d="M72.1086,18 L12.1086,36 L12.1086,108 L21.1086,84 C21.1086,79.452 18.1986,55.572 22.3146,51.828 C25.7886,48.672 34.0986,49.656 39.7746,47.43 C44.6346,45.528 48.2526,39.504 54.2706,38.514 C59.6826,37.62 66.0846,41.904 72.1086,41.904 C78.1326,41.904 84.5346,37.62 89.9466,38.508 C95.9526,39.504 99.5706,45.528 104.4246,47.424 C110.1066,49.65 118.4166,48.66 121.8906,51.816 C126.0126,55.56 123.1086,79.446 123.1086,84 L132.1086,108 L132.1086,36 L72.1086,18 Z"
                    fill="#323232" id="Fill-23" />
            </g>
        </g>
    </g>
</svg>