<?xml version="1.0" ?><svg height="180px" version="1.1" viewBox="0 0 168 180" width="168px" xmlns="http://www.w3.org/2000/svg" xmlns:sketch="http://www.bohemiancoding.com/sketch/ns" xmlns:xlink="http://www.w3.org/1999/xlink"><title/><desc/><defs/><g fill="none" fill-rule="evenodd" id="Page-1" stroke="none" stroke-width="1"><g id="star-wars-copy" transform="translate(-1745.000000, -1259.000000)"><g id="lobot" transform="translate(1745.000000, 1259.000000)"><path d="M144,114.0006 L144,114.0006 C137.4,114.0006 132,108.6006 132,102.0006 L132,84.0006 C132,77.4006 137.4,72.0006 144,72.0006 L144,72.0006 C150.6,72.0006 156,77.4006 156,84.0006 L156,102.0006 C156,108.6006 150.6,114.0006 144,114.0006" fill="#BEE6FA" id="Fill-1"/><path d="M24,114.0006 L24,114.0006 C17.4,114.0006 12,108.6006 12,102.0006 L12,84.0006 C12,77.4006 17.4,72.0006 24,72.0006 L24,72.0006 C30.6,72.0006 36,77.4006 36,84.0006 L36,102.0006 C36,108.6006 30.6,114.0006 24,114.0006" fill="#BEE6FA" id="Fill-3"/><path d="M84,0.0006 C50.862,0.0006 24,26.8626 24,60.0006 L24,130.8006 C24,138.6306 27.822,145.9686 34.236,150.4626 L36,151.6986 L70.236,175.6626 C78.498,181.4466 89.502,181.4466 97.764,175.6626 L132,151.6986 L133.764,150.4626 C140.178,145.9686 144,138.6306 144,130.8006 L144,90.0006 L144,60.0006 C144,26.8626 117.138,0.0006 84,0.0006" fill="#F0B496" id="Fill-5"/><path d="M144,114.0006 L144,114.0006 C137.4,114.0006 132,108.6006 132,102.0006 L132,84.0006 C132,77.4006 137.4,72.0006 144,72.0006 L144,72.0006 C150.6,72.0006 156,77.4006 156,84.0006 L156,102.0006 C156,108.6006 150.6,114.0006 144,114.0006" fill="#F0B496" id="Fill-8"/><path d="M24,114.0006 L24,114.0006 C17.4,114.0006 12,108.6006 12,102.0006 L12,84.0006 C12,77.4006 17.4,72.0006 24,72.0006 L24,72.0006 C30.6,72.0006 36,77.4006 36,84.0006 L36,102.0006 C36,108.6006 30.6,114.0006 24,114.0006" fill="#F0B496" id="Fill-10"/><path d="M60,84.0006 C56.682,84.0006 54,86.6826 54,90.0006 C54,93.3186 56.682,96.0006 60,96.0006 C63.318,96.0006 66,93.3186 66,90.0006 C66,86.6826 63.318,84.0006 60,84.0006" fill="#323232" id="Fill-12"/><path d="M108,84.0006 C104.682,84.0006 102,86.6826 102,90.0006 C102,93.3186 104.682,96.0006 108,96.0006 C111.318,96.0006 114,93.3186 114,90.0006 C114,86.6826 111.318,84.0006 108,84.0006" fill="#323232" id="Fill-14"/><path d="M78,116.7948 L78,86.9988 C78,85.3428 79.344,83.9988 81,83.9988 L81,83.9988 C82.656,83.9988 84,85.3428 84,86.9988 L84,116.7948 C84,118.4508 82.656,119.7948 81,119.7948 L81,119.7948 C79.344,119.7948 78,118.4508 78,116.7948" fill="#E99977" id="Fill-16"/><path d="M24,126 L13.266,126 C5.94,126 0,120.06 0,112.734 L0,84 L6.636,70.734 C9.924,64.158 16.644,60 24,60 L24,60 L24,126 Z" fill="#8C8C8C" id="Fill-18"/><path d="M24,90 L0,90 L0,84 L24,84 L24,90 Z" fill="#BEBEBE" id="Fill-20"/><path d="M144,126 L154.734,126 C162.06,126 168,120.06 168,112.734 L168,84 L161.364,70.734 C158.076,64.158 151.356,60 144,60 L144,60 L144,126 Z" fill="#8C8C8C" id="Fill-22"/><path d="M144,90 L168,90 L168,84 L144,84 L144,90 Z" fill="#BEBEBE" id="Fill-23"/><path d="M156,96 L162,96 L162,108 L156,108 L156,96 Z" fill="#E74C3C" id="Fill-24"/></g></g></g></svg>