<?xml version="1.0" ?><svg height="175px" version="1.1" viewBox="0 0 157 175" width="157px" xmlns="http://www.w3.org/2000/svg" xmlns:sketch="http://www.bohemiancoding.com/sketch/ns" xmlns:xlink="http://www.w3.org/1999/xlink"><title/><desc/><defs/><g fill="none" fill-rule="evenodd" id="Page-1" stroke="none" stroke-width="1"><g id="star-wars-copy" transform="translate(-1014.000000, -2040.000000)"><g id="jango-fett" transform="translate(1014.000000, 2040.000000)"><path d="M144.738,60.644 C144.738,60.644 141.294,6.974 78.12,6.644 C14.946,6.974 11.502,60.644 11.502,60.644 L0.12,150.644 L60.12,174.644 L78.12,174.644 L96.12,174.644 L156.12,150.644 L144.738,60.644 Z" fill="#8C8C8C" id="Fill-40"/><path d="M6.12,18.644 L6.12,62.306 C2.55,64.388 0.12,68.216 0.12,72.644 L0.12,90.644 C0.12,97.268 5.496,102.644 12.12,102.644 L18.12,102.644 L18.12,60.644 L12.12,60.644 L12.12,18.644 L6.12,18.644 Z" fill="#BEBEBE" id="Fill-41"/><path d="M30.12,6.644 C30.12,3.332 27.432,0.644 24.12,0.644 L12.12,0.644 C5.496,0.644 0.12,6.02 0.12,12.644 L6.12,18.644 L12.12,18.644 L30.12,6.644 Z" fill="#323232" id="Fill-42"/><path d="M148.5336,90.6542 L78.1176,91.1102 L7.7076,90.6542 L0.1176,150.6422 C7.4556,121.6442 19.7256,114.6422 30.1176,114.6422 C46.6896,114.6422 60.1176,139.2962 60.1176,174.6422 L78.1176,174.6422 L96.1176,174.6422 C96.1176,139.2962 109.5516,114.6422 126.1176,114.6422 C136.5156,114.6422 148.7856,121.6442 156.1176,150.6422 L148.5336,90.6542 Z" fill="#1D628F" id="Fill-43"/><path d="M144.738,60.644 L78.12,60.644 L11.502,60.644 L7.698,90.734 C31.644,91.664 60.12,113.972 60.12,174.644 L78.12,174.644 L96.12,174.644 C96.12,113.972 124.596,91.664 148.542,90.734 L144.738,60.644 Z" fill="#2980B9" id="Fill-44"/><path d="M147.0906,79.2494 L146.2566,72.6434 L78.1206,72.6434 L9.9846,72.6434 L9.1506,79.2494 L66.1206,90.6434 L66.1206,174.6434 L78.1206,174.6434 L90.1206,174.6434 L90.1206,90.6434 L147.0906,79.2494 Z" fill="#323232" id="Fill-45"/><path d="M96.12,24.644 C113.418,24.734 126.216,28.838 135.714,34.73 C127.128,20.96 110.46,6.812 78.12,6.644 C14.946,6.974 11.502,60.644 11.502,60.644 L34.368,60.644 C41.184,45.014 57.462,24.848 96.12,24.644" fill="#BEBEBE" id="Fill-46" opacity="0.25"/></g></g></g></svg>