<?xml version="1.0" ?>
<svg height="181px" version="1.1" viewBox="0 0 145 181" width="145px"
    xmlns="http://www.w3.org/2000/svg">
    <title />
    <desc />
    <defs />
    <g fill="none" fill-rule="evenodd" id="Page-1" stroke="none" stroke-width="1">
        <g id="star-wars-copy" transform="translate(-1757.000000, -2037.000000)">
            <g id="darth-maul" transform="translate(1757.000000, 2037.000000)">
                <path
                    d="M12.165,60.5 L12.165,131.3 C12.165,139.13 15.987,146.468 22.401,150.962 L24.165,152.198 L58.401,176.162 C66.663,181.946 77.667,181.946 85.929,176.162 L120.165,152.198 L121.929,150.962 C128.343,146.468 132.165,139.13 132.165,131.3 L132.165,90.5 L132.165,60.5 C132.165,27.362 12.165,27.362 12.165,60.5"
                    fill="#323232" id="Fill-59" />
                <path
                    d="M120.165,42.4994 L120.165,34.0154 L141.381,21.2834 L128.649,42.4994 L120.165,42.4994 Z"
                    fill="#BEBEBE" id="Fill-60" />
                <path
                    d="M24.165,42.4994 L24.165,34.0154 L2.949,21.2834 L15.681,42.4994 L24.165,42.4994 Z"
                    fill="#BEBEBE" id="Fill-61" />
                <path
                    d="M12.165,114.5 L12.165,114.5 C5.565,114.5 0.165,109.1 0.165,102.5 L0.165,84.5 C0.165,77.9 5.565,72.5 12.165,72.5 L12.165,72.5 C18.765,72.5 24.165,77.9 24.165,84.5 L24.165,102.5 C24.165,109.1 18.765,114.5 12.165,114.5"
                    fill="#323232" id="Fill-62" />
                <path
                    d="M132.165,114.5 L132.165,114.5 C125.565,114.5 120.165,109.1 120.165,102.5 L120.165,84.5 C120.165,77.9 125.565,72.5 132.165,72.5 L132.165,72.5 C138.765,72.5 144.165,77.9 144.165,84.5 L144.165,102.5 C144.165,109.1 138.765,114.5 132.165,114.5"
                    fill="#323232" id="Fill-63" />
                <path
                    d="M72.165,0.5 C39.027,0.5 12.165,27.362 12.165,60.5 L18.165,72.5 L12.165,96.5 L42.165,150.5 L60.165,132.5 L66.165,150.5 L78.165,150.5 L84.165,132.5 L102.165,150.5 L132.165,90.5 L126.165,72.494 L132.165,60.5 C132.165,27.362 105.303,0.5 72.165,0.5"
                    fill="#921816" id="Fill-64" />
                <path
                    d="M78.165,90.4994 L102.165,72.4994 L120.165,84.4994 L102.165,108.4994 L78.165,90.4994 Z"
                    fill="#323232" id="Fill-65" />
                <path
                    d="M96.165,84.5 C92.847,84.5 90.165,87.182 90.165,90.5 C90.165,93.818 92.847,96.5 96.165,96.5 C99.483,96.5 102.165,93.818 102.165,90.5 C102.165,87.182 99.483,84.5 96.165,84.5"
                    fill="#F1C40F" id="Fill-66" />
                <path
                    d="M66.165,90.4994 L42.165,72.4994 L24.165,84.4994 L36.165,108.4994 L66.165,90.4994 Z"
                    fill="#323232" id="Fill-67" />
                <path
                    d="M48.165,84.5 C44.847,84.5 42.165,87.182 42.165,90.5 C42.165,93.818 44.847,96.5 48.165,96.5 C51.483,96.5 54.165,93.818 54.165,90.5 C54.165,87.182 51.483,84.5 48.165,84.5"
                    fill="#F1C40F" id="Fill-68" />
                <path
                    d="M84.165,156.4994 L60.165,156.4994 L56.499,174.8294 L58.401,176.1614 C66.663,181.9454 77.667,181.9454 85.929,176.1614 L87.831,174.8294 L84.165,156.4994 Z"
                    fill="#921816" id="Fill-69" />
                <path
                    d="M72.165,18.4994 L60.165,36.4994 L72.165,90.4994 L84.165,36.4994 L72.165,18.4994 Z"
                    fill="#323232" id="Fill-70" />
                <path
                    d="M42.165,84.4994 L54.165,66.4994 L48.165,48.4994 L30.165,66.4994 L30.165,36.4994 L36.165,54.4994 L48.165,42.4994 L60.165,66.4994 L42.165,84.4994 Z"
                    fill="#323232" id="Fill-71" />
                <path
                    d="M30.165,54.4994 L21.681,36.4994 L30.165,28.0154 L38.649,36.4994 L30.165,54.4994 Z"
                    fill="#323232" id="Fill-72" />
                <path
                    d="M72.165,42.4994 L78.165,36.4994 L72.165,12.4994 L66.165,36.4994 L72.165,42.4994 Z"
                    fill="#BEBEBE" id="Fill-73" />
                <path
                    d="M30.165,42.4994 L36.165,36.4994 L30.165,12.4994 L24.165,36.4994 L30.165,42.4994 Z"
                    fill="#BEBEBE" id="Fill-74" />
                <path
                    d="M102.165,84.4994 L90.165,66.4994 L96.165,48.4994 L114.165,66.4994 L114.165,36.4994 L108.165,54.4994 L96.165,42.4994 L84.165,66.4994 L102.165,84.4994 Z"
                    fill="#323232" id="Fill-75" />
                <path
                    d="M114.165,54.4994 L122.649,36.4994 L114.165,28.0154 L105.681,36.4994 L114.165,54.4994 Z"
                    fill="#323232" id="Fill-76" />
                <path
                    d="M114.165,42.4994 L108.165,36.4994 L114.165,12.4994 L120.165,36.4994 L114.165,42.4994 Z"
                    fill="#BEBEBE" id="Fill-77" />
                <path
                    d="M36.165,90.4994 L18.165,120.4994 L36.165,132.4994 L54.165,108.4994 L36.165,126.4994 L24.165,120.4994 L36.165,90.4994 Z"
                    fill="#323232" id="Fill-78" />
                <path
                    d="M108.165,90.4994 L126.165,120.4994 L108.165,132.4994 L90.165,108.4994 L108.165,126.4994 L120.165,120.4994 L108.165,90.4994 Z"
                    fill="#323232" id="Fill-79" />
                <path
                    d="M72.165,126.4994 L84.165,120.4994 L72.165,132.4994 L60.165,120.4994 L72.165,126.4994 Z"
                    fill="#323232" id="Fill-80" />
                <path
                    d="M69.165,156.4994 L60.165,168.4994 L66.165,174.4994 L66.165,168.4994 L72.165,162.4994 L78.165,168.4994 L78.165,174.4994 L84.165,168.4994 L75.165,156.4994 L69.165,156.4994 Z"
                    fill="#323232" id="Fill-81" />
            </g>
        </g>
    </g>
</svg>